<?xml version="1.0" ?><svg data-name="027_APPLIANCES" id="_027_APPLIANCES" viewBox="0 0 24 24" xmlns="http://www.w3.org/2000/svg"><defs><style>.cls-1{fill:#333;}</style></defs><path class="cls-1" d="M19.44,19H4.56A2.56,2.56,0,0,1,2,16.44V6.56A2.56,2.56,0,0,1,4.56,4H19.44A2.56,2.56,0,0,1,22,6.56v9.88A2.56,2.56,0,0,1,19.44,19ZM4.56,6A.56.56,0,0,0,4,6.56v9.88a.56.56,0,0,0,.56.56H19.44a.56.56,0,0,0,.56-.56V6.56A.56.56,0,0,0,19.44,6Z"/><path class="cls-1" d="M12,10a1,1,0,0,1-1-1V5a1,1,0,0,1,2,0V9A1,1,0,0,1,12,10Z"/><path class="cls-1" d="M8,10A1,1,0,0,1,7,9V5A1,1,0,0,1,9,5V9A1,1,0,0,1,8,10Z"/><path class="cls-1" d="M16,10a1,1,0,0,1-1-1V5a1,1,0,0,1,2,0V9A1,1,0,0,1,16,10Z"/><path class="cls-1" d="M16,14a1.05,1.05,0,0,1-.71-.29A1,1,0,0,1,15,13a1,1,0,0,1,.08-.38,1,1,0,0,1,.21-.33,1,1,0,0,1,1.42,0,1,1,0,0,1,.21.33A1,1,0,0,1,17,13a1,1,0,0,1-1,1Z"/><path class="cls-1" d="M19,21a1,1,0,0,1-1-1V18a1,1,0,0,1,2,0v2A1,1,0,0,1,19,21Z"/><path class="cls-1" d="M5,21a1,1,0,0,1-1-1V18a1,1,0,0,1,2,0v2A1,1,0,0,1,5,21Z"/></svg>